# xmcd
#
# Track frame offsets:
#	150
#	17025
#	39774
#	56473
#	72136
#	96573
#	114418
#	133198
#	156888
#
# Disc length: 2319 seconds
#
# Revision: 2
# Processed by: cddbd v1.5.2PL0 Copyright (c) Steve Scherf et al.
# Submitted via: audiograbber 1.83.01
#
DISCID=72090d09
DTITLE=Ry Cooder - Election Special
DYEAR=2012
DGENRE=Folk/Rock
TTITLE0=Mutt Romney Blues
TTITLE1=Brother Is Gone
TTITLE2=The Wall Street Part Of Town
TTITLE3=Guantanamo
TTITLE4=Cold Cold Feeling
TTITLE5=Going To Tampa
TTITLE6=Kool-Aid
TTITLE7=The 90 And The 9
TTITLE8=Take Your Hands Off It
EXTD=
EXTT0=
EXTT1=
EXTT2=
EXTT3=
EXTT4=
EXTT5=
EXTT6=
EXTT7=
EXTT8=
PLAYORDER=
